<?xml version="1.0" encoding="UTF-8"?>
<svg width="1081px" height="122px" viewBox="0 0 1081 122" version="1.1" xmlns="http://www.w3.org/2000/svg" xmlns:xlink="http://www.w3.org/1999/xlink">
    <!-- Generator: sketchtool 53.1 (72631) - https://sketchapp.com -->
    <title>F7C39F38-F588-4C93-B003-0E9F64136508@z</title>
    <desc>Created with sketchtool.</desc>
    <g id="Design" stroke="none" stroke-width="1" fill="none" fill-rule="evenodd" opacity="0.501441592">
        <g id="Table-Empty-Modal" transform="translate(-300.000000, -579.000000)" fill="#D1FFFF" fill-rule="nonzero">
            <g id="Screen">
                <g id="MENU" transform="translate(20.000000, 580.000000)">
                    <g id="Panel" transform="translate(240.000000, 0.000000)">
                        <g transform="translate(0.000000, -1.000000)" id="Rectangle">
                            <path d="M41,1 L41,21.0857864 L61,41.0857864 L61,81.4 L41,102.4 L41,121 L60.5706886,121 L79.5706886,101 L80,101 L1080,101 L1080.41421,101 L1100.41421,121 L1120,121 L1120,102.421289 L1099,81.9212886 L1099,41.0714286 L1120,21.0714286 L1120,2 L1100.41421,2 L1080.41421,22 L79.5562093,22 L60.5562093,1 L41,1 Z M40,5.68434189e-14 L61,5.68434189e-14 L80,21 L1080,21 L1100,1 L1121,1 L1121,21.5 L1100,41.5 L1100,81.5 L1121,102 L1121,122 L1100,122 L1080,102 L80,102 L61,122 L40,122 L40,102 L60,81 L60,41.5 L40,21.5 L40,5.68434189e-14 Z"></path>
                        </g>
                    </g>
                </g>
            </g>
        </g>
    </g>
</svg>